{
  "accessors": [
    {
      "bufferView": 1,
      "componentType": 5126,
      "count": 396,
      "max": [
        1.6460168361663818,
        0.44547206163406372,
        0.0048459167592227459
      ],
      "min": [
        -1.5712970495223999,
        0.37484121322631836,
        -0.095808826386928558
      ],
      "type": "VEC3"
    },
    {
      "bufferView": 1,
      "byteOffset": 4752,
      "componentType": 5126,
      "count": 396,
      "max": [
        0.96428000926971436,
        0.98722898960113525,
        0.9738609790802002
      ],
      "min": [
        -0.96433955430984497,
        -0.98907768726348877,
        -0.97386068105697632
      ],
      "type": "VEC3"
    },
    {
      "bufferView": 2,
      "componentType": 5126,
      "count": 396,
      "max": [
        0,
        0,
        0,
        1
      ],
      "min": [
        0,
        0,
        0,
        1
      ],
      "type": "VEC4"
    },
    {
      "bufferView": 0,
      "componentType": 5125,
      "count": 1182,
      "max": [
        395
      ],
      "min": [
        0
      ],
      "type": "SCALAR"
    },
    {
      "bufferView": 1,
      "byteOffset": 9504,
      "componentType": 5126,
      "count": 17993,
      "max": [
        1.0069296360015869,
        0.45864775776863098,
        -0.032189860939979553
      ],
      "min": [
        -0.85083931684494019,
        0.40728673338890076,
        -0.080681145191192627
      ],
      "type": "VEC3"
    },
    {
      "bufferView": 1,
      "byteOffset": 225420,
      "componentType": 5126,
      "count": 17993,
      "max": [
        0.99999094009399414,
        0.99998295307159424,
        0.99988800287246704
      ],
      "min": [
        -0.99999642372131348,
        -0.99998289346694946,
        -0.99996501207351685
      ],
      "type": "VEC3"
    },
    {
      "bufferView": 2,
      "byteOffset": 6336,
      "componentType": 5126,
      "count": 17993,
      "max": [
        0,
        0,
        0,
        1
      ],
      "min": [
        0,
        0,
        0,
        1
      ],
      "type": "VEC4"
    },
    {
      "bufferView": 0,
      "byteOffset": 4728,
      "componentType": 5125,
      "count": 74970,
      "max": [
        17992
      ],
      "min": [
        0
      ],
      "type": "SCALAR"
    },
    {
      "bufferView": 1,
      "byteOffset": 441336,
      "componentType": 5126,
      "count": 64379,
      "max": [
        0.14499302208423615,
        0.500480055809021,
        -0.047677762806415558
      ],
      "min": [
        0.073998019099235535,
        0.42991644144058228,
        -0.075832530856132507
      ],
      "type": "VEC3"
    },
    {
      "bufferView": 1,
      "byteOffset": 1213884,
      "componentType": 5126,
      "count": 64379,
      "max": [
        0.99996346235275269,
        0.99999755620956421,
        0.99997973442077637
      ],
      "min": [
        -0.99995160102844238,
        -0.9999852180480957,
        -0.99998873472213745
      ],
      "type": "VEC3"
    },
    {
      "bufferView": 2,
      "byteOffset": 294224,
      "componentType": 5126,
      "count": 64379,
      "max": [
        0,
        0,
        0,
        1
      ],
      "min": [
        0,
        0,
        0,
        1
      ],
      "type": "VEC4"
    },
    {
      "bufferView": 0,
      "byteOffset": 304608,
      "componentType": 5125,
      "count": 218442,
      "max": [
        64378
      ],
      "min": [
        0
      ],
      "type": "SCALAR"
    },
    {
      "bufferView": 1,
      "byteOffset": 1986432,
      "componentType": 5126,
      "count": 65532,
      "max": [
        1.2482843399047852,
        1.7761623859405518,
        0.85842567682266235
      ],
      "min": [
        -0.98661994934082031,
        0.075040958821773529,
        0.066048420965671539
      ],
      "type": "VEC3"
    },
    {
      "bufferView": 1,
      "byteOffset": 2772816,
      "componentType": 5126,
      "count": 65532,
      "max": [
        0.99971866607666016,
        1,
        1
      ],
      "min": [
        -0.99973392486572266,
        -1,
        -1
      ],
      "type": "VEC3"
    },
    {
      "bufferView": 2,
      "byteOffset": 1324288,
      "componentType": 5126,
      "count": 65532,
      "max": [
        1,
        0.56862747669219971,
        0.69411766529083252,
        1
      ],
      "min": [
        0,
        0,
        0,
        1
      ],
      "type": "VEC4"
    },
    {
      "bufferView": 0,
      "byteOffset": 1178376,
      "componentType": 5125,
      "count": 244713,
      "max": [
        65531
      ],
      "min": [
        0
      ],
      "type": "SCALAR"
    },
    {
      "bufferView": 1,
      "byteOffset": 3559200,
      "componentType": 5126,
      "count": 65532,
      "max": [
        0.97829306125640869,
        2.2215352058410645,
        0.69263416528701782
      ],
      "min": [
        -1.3817259073257446,
        1.0401566028594971,
        -0.13380542397499084
      ],
      "type": "VEC3"
    },
    {
      "bufferView": 1,
      "byteOffset": 4345584,
      "componentType": 5126,
      "count": 65532,
      "max": [
        0.99998611211776733,
        0.99990952014923096,
        0.9998241662979126
      ],
      "min": [
        -0.99995195865631104,
        -0.9997907280921936,
        -0.99987602233886719
      ],
      "type": "VEC3"
    },
    {
      "bufferView": 2,
      "byteOffset": 2372800,
      "componentType": 5126,
      "count": 65532,
      "max": [
        0.49019607901573181,
        0.3490196168422699,
        0.84313726425170898,
        1
      ],
      "min": [
        0,
        0,
        0.0078431377187371254,
        1
      ],
      "type": "VEC4"
    },
    {
      "bufferView": 0,
      "byteOffset": 2157228,
      "componentType": 5125,
      "count": 231939,
      "max": [
        65531
      ],
      "min": [
        0
      ],
      "type": "SCALAR"
    },
    {
      "bufferView": 1,
      "byteOffset": 5131968,
      "componentType": 5126,
      "count": 65532,
      "max": [
        1.771357536315918,
        2.1525967121124268,
        0.69864130020141602
      ],
      "min": [
        -1.5901588201522827,
        0.060882773250341415,
        -0.34740284085273743
      ],
      "type": "VEC3"
    },
    {
      "bufferView": 1,
      "byteOffset": 5918352,
      "componentType": 5126,
      "count": 65532,
      "max": [
        0.9999319314956665,
        0.99994480609893799,
        0.99979209899902344
      ],
      "min": [
        -0.99993515014648438,
        -0.9999774694442749,
        -0.99995696544647217
      ],
      "type": "VEC3"
    },
    {
      "bufferView": 2,
      "byteOffset": 3421312,
      "componentType": 5126,
      "count": 65532,
      "max": [
        1,
        0.66274511814117432,
        0.84313726425170898,
        1
      ],
      "min": [
        0.058823529630899429,
        0.090196080505847931,
        0.054901961237192154,
        1
      ],
      "type": "VEC4"
    },
    {
      "bufferView": 0,
      "byteOffset": 3084984,
      "componentType": 5125,
      "count": 241248,
      "max": [
        65531
      ],
      "min": [
        0
      ],
      "type": "SCALAR"
    },
    {
      "bufferView": 1,
      "byteOffset": 6704736,
      "componentType": 5126,
      "count": 38224,
      "max": [
        1.4383294582366943,
        2.3838422298431396,
        0.70498692989349365
      ],
      "min": [
        -0.70642358064651489,
        1.146365761756897,
        -0.3503531813621521
      ],
      "type": "VEC3"
    },
    {
      "bufferView": 1,
      "byteOffset": 7163424,
      "componentType": 5126,
      "count": 38224,
      "max": [
        0.99996602535247803,
        1,
        1
      ],
      "min": [
        -0.99997001886367798,
        -1,
        -1
      ],
      "type": "VEC3"
    },
    {
      "bufferView": 2,
      "byteOffset": 4469824,
      "componentType": 5126,
      "count": 38224,
      "max": [
        0.058823529630899429,
        0.090196080505847931,
        0.32156863808631897,
        1
      ],
      "min": [
        0.027450980618596077,
        0.047058824449777603,
        0.18823529779911041,
        1
      ],
      "type": "VEC4"
    },
    {
      "bufferView": 0,
      "byteOffset": 4049976,
      "componentType": 5125,
      "count": 140760,
      "max": [
        38223
      ],
      "min": [
        0
      ],
      "type": "SCALAR"
    },
    {
      "bufferView": 1,
      "byteOffset": 7622112,
      "componentType": 5126,
      "count": 35590,
      "max": [
        0.46472862362861633,
        0.88351672887802124,
        0.50857621431350708
      ],
      "min": [
        -0.24389806389808655,
        -0.02577613852918148,
        -0.15281188488006592
      ],
      "type": "VEC3"
    },
    {
      "bufferView": 1,
      "byteOffset": 8049192,
      "componentType": 5126,
      "count": 35590,
      "max": [
        0.9999653697013855,
        0.99994540214538574,
        0.9999549388885498
      ],
      "min": [
        -0.9998665452003479,
        -0.99999964237213135,
        -0.99998867511749268
      ],
      "type": "VEC3"
    },
    {
      "bufferView": 2,
      "byteOffset": 5081408,
      "componentType": 5126,
      "count": 35590,
      "max": [
        1,
        0.75294119119644165,
        0.94117647409439087,
        1
      ],
      "min": [
        0,
        0,
        0,
        1
      ],
      "type": "VEC4"
    },
    {
      "bufferView": 0,
      "byteOffset": 4613016,
      "componentType": 5125,
      "count": 113076,
      "max": [
        35589
      ],
      "min": [
        0
      ],
      "type": "SCALAR"
    },
    {
      "bufferView": 1,
      "byteOffset": 8476272,
      "componentType": 5126,
      "count": 28903,
      "max": [
        1.0101017951965332,
        1.2856334447860718,
        0.86536997556686401
      ],
      "min": [
        -0.77357035875320435,
        0.24821150302886963,
        0.0010760881705209613
      ],
      "type": "VEC3"
    },
    {
      "bufferView": 1,
      "byteOffset": 8823108,
      "componentType": 5126,
      "count": 28903,
      "max": [
        0.99991661310195923,
        0.9999309778213501,
        0.9999498724937439
      ],
      "min": [
        -0.99997615814208984,
        -0.99994206428527832,
        -0.99991273880004883
      ],
      "type": "VEC3"
    },
    {
      "bufferView": 2,
      "byteOffset": 5650848,
      "componentType": 5126,
      "count": 28903,
      "max": [
        0.99607843160629272,
        0.69411766529083252,
        0.85882353782653809,
        1
      ],
      "min": [
        0.027450980618596077,
        0.0078431377187371254,
        0.0078431377187371254,
        1
      ],
      "type": "VEC4"
    },
    {
      "bufferView": 0,
      "byteOffset": 5065320,
      "componentType": 5125,
      "count": 79116,
      "max": [
        28902
      ],
      "min": [
        0
      ],
      "type": "SCALAR"
    }
  ],
  "asset": {
    "extras": {
      "author": "IForgetHowToRead (https://sketchfab.com/dirb)",
      "license": "CC-BY-4.0 (http://creativecommons.org/licenses/by/4.0/)",
      "source": "https://sketchfab.com/3d-models/sunset-a78e2be8920c47939105a7d4201b6a34",
      "title": "Sunset"
    },
    "generator": "Sketchfab-8.89.2",
    "version": "2.0"
  },
  "bufferViews": [
    {
      "buffer": 0,
      "byteLength": 5381784,
      "byteOffset": 0,
      "name": "floatBufferViews",
      "target": 34963
    },
    {
      "buffer": 0,
      "byteLength": 9169944,
      "byteOffset": 5381784,
      "byteStride": 12,
      "name": "floatBufferViews",
      "target": 34962
    },
    {
      "buffer": 0,
      "byteLength": 6113296,
      "byteOffset": 14551728,
      "byteStride": 16,
      "name": "floatBufferViews",
      "target": 34962
    }
  ],
  "buffers": [
    {
      "byteLength": 20665024,
      "uri": "scene.bin"
    }
  ],
  "extensionsUsed": [
    "KHR_materials_unlit"
  ],
  "materials": [
    {
      "doubleSided": true,
      "emissiveFactor": [
        0,
        0,
        0
      ],
      "extensions": {
        "KHR_materials_unlit": {}
      },
      "name": "lambert1",
      "pbrMetallicRoughness": {
        "baseColorFactor": [
          0.5,
          0.5,
          0.5,
          1
        ],
        "metallicFactor": 0,
        "roughnessFactor": 1
      }
    }
  ],
  "meshes": [
    {
      "name": "sunset:MeshFrames_lambert1_0",
      "primitives": [
        {
          "attributes": {
            "COLOR_0": 2,
            "NORMAL": 1,
            "POSITION": 0
          },
          "indices": 3,
          "material": 0,
          "mode": 4
        }
      ]
    },
    {
      "name": "sunset:MeshFrames_lambert1_0",
      "primitives": [
        {
          "attributes": {
            "COLOR_0": 6,
            "NORMAL": 5,
            "POSITION": 4
          },
          "indices": 7,
          "material": 0,
          "mode": 4
        }
      ]
    },
    {
      "name": "sunset:MeshFrames_lambert1_0",
      "primitives": [
        {
          "attributes": {
            "COLOR_0": 10,
            "NORMAL": 9,
            "POSITION": 8
          },
          "indices": 11,
          "material": 0,
          "mode": 4
        }
      ]
    },
    {
      "name": "sunset:MeshFrames_lambert1_0",
      "primitives": [
        {
          "attributes": {
            "COLOR_0": 14,
            "NORMAL": 13,
            "POSITION": 12
          },
          "indices": 15,
          "material": 0,
          "mode": 4
        }
      ]
    },
    {
      "name": "sunset:MeshFrames_lambert1_0",
      "primitives": [
        {
          "attributes": {
            "COLOR_0": 18,
            "NORMAL": 17,
            "POSITION": 16
          },
          "indices": 19,
          "material": 0,
          "mode": 4
        }
      ]
    },
    {
      "name": "sunset:MeshFrames_lambert1_0",
      "primitives": [
        {
          "attributes": {
            "COLOR_0": 22,
            "NORMAL": 21,
            "POSITION": 20
          },
          "indices": 23,
          "material": 0,
          "mode": 4
        }
      ]
    },
    {
      "name": "sunset:MeshFrames_lambert1_0",
      "primitives": [
        {
          "attributes": {
            "COLOR_0": 26,
            "NORMAL": 25,
            "POSITION": 24
          },
          "indices": 27,
          "material": 0,
          "mode": 4
        }
      ]
    },
    {
      "name": "sunset:MeshFrames_lambert1_0",
      "primitives": [
        {
          "attributes": {
            "COLOR_0": 30,
            "NORMAL": 29,
            "POSITION": 28
          },
          "indices": 31,
          "material": 0,
          "mode": 4
        }
      ]
    },
    {
      "name": "sunset:MeshFrames_lambert1_0",
      "primitives": [
        {
          "attributes": {
            "COLOR_0": 34,
            "NORMAL": 33,
            "POSITION": 32
          },
          "indices": 35,
          "material": 0,
          "mode": 4
        }
      ]
    }
  ],
  "nodes": [
    {
      "children": [
        1
      ],
      "name": "RootNode (gltf orientation matrix)",
      "rotation": [
        -0.70710678118654746,
        -0,
        -0,
        0.70710678118654757
      ]
    },
    {
      "children": [
        2
      ],
      "matrix": [
        3.8932349681854248,
        0,
        0,
        0,
        0,
        3.8932349681854248,
        0,
        0,
        0,
        0,
        3.8932349681854248,
        0,
        0,
        0,
        0,
        1
      ],
      "name": "RootNode (model correction matrix)"
    },
    {
      "children": [
        3
      ],
      "matrix": [
        1,
        0,
        0,
        0,
        0,
        0,
        1,
        0,
        0,
        -1,
        0,
        0,
        0,
        0,
        0,
        1
      ],
      "name": "fb8a867dc0fa4e30b5f7a17af489606b.fbx"
    },
    {
      "children": [
        4
      ],
      "name": "RootNode"
    },
    {
      "children": [
        5
      ],
      "name": "sunset:Stage"
    },
    {
      "children": [
        6
      ],
      "name": "sunset:Symbol"
    },
    {
      "children": [
        7,
        18
      ],
      "name": "sunset:Pivot"
    },
    {
      "children": [
        8
      ],
      "name": "sunset:girl___cat"
    },
    {
      "children": [
        9,
        12,
        15
      ],
      "name": "sunset:Pivot"
    },
    {
      "children": [
        10
      ],
      "matrix": [
        0.99999988079071045,
        0,
        0,
        0,
        0,
        1,
        0,
        0,
        0,
        0,
        1.0000002384185791,
        0,
        0,
        0,
        0,
        1
      ],
      "name": "sunset:paint_1"
    },
    {
      "children": [
        11
      ],
      "name": "sunset:MeshFrames"
    },
    {
      "mesh": 0,
      "name": "sunset:MeshFrames_lambert1_0"
    },
    {
      "children": [
        13
      ],
      "matrix": [
        0.99999988079071045,
        0,
        0,
        0,
        0,
        1,
        0,
        0,
        0,
        0,
        1.0000002384185791,
        0,
        0,
        0,
        0,
        1
      ],
      "name": "sunset:paint_2"
    },
    {
      "children": [
        14
      ],
      "name": "sunset:MeshFrames"
    },
    {
      "mesh": 1,
      "name": "sunset:MeshFrames_lambert1_0"
    },
    {
      "children": [
        16
      ],
      "name": "sunset:paint_7"
    },
    {
      "children": [
        17
      ],
      "name": "sunset:MeshFrames"
    },
    {
      "mesh": 2,
      "name": "sunset:MeshFrames_lambert1_0"
    },
    {
      "children": [
        19
      ],
      "name": "sunset:group_2"
    },
    {
      "children": [
        20,
        26,
        29
      ],
      "name": "sunset:Pivot"
    },
    {
      "children": [
        21
      ],
      "matrix": [
        0.611386900803219,
        0.12151824794722144,
        -0.0062057502207243558,
        0,
        -0.11081097747161139,
        0.5429339731900481,
        -0.28554080574300283,
        0,
        -0.050258088787153168,
        0.28115747361199406,
        0.55410326300962565,
        0,
        0.23980538547039032,
        0.022689348086714745,
        0.71275657415390015,
        1
      ],
      "name": "sunset:paint_4"
    },
    {
      "children": [
        22,
        23,
        24,
        25
      ],
      "matrix": [
        1,
        -1.3877787807814454e-17,
        -8.6736173798840339e-18,
        0,
        1.3877787807814454e-17,
        1,
        -1.6653345369377346e-16,
        0,
        8.673617379884037e-18,
        1.6653345369377346e-16,
        1,
        0,
        0,
        0,
        0,
        1
      ],
      "name": "sunset:MeshFrames"
    },
    {
      "mesh": 3,
      "name": "sunset:MeshFrames_lambert1_0"
    },
    {
      "mesh": 4,
      "name": "sunset:MeshFrames_lambert1_0"
    },
    {
      "mesh": 5,
      "name": "sunset:MeshFrames_lambert1_0"
    },
    {
      "mesh": 6,
      "name": "sunset:MeshFrames_lambert1_0"
    },
    {
      "children": [
        27
      ],
      "matrix": [
        0.99718671677342308,
        0.056894283536439529,
        0.048812355670052952,
        0,
        -0.050835455759900401,
        0.99177420127565263,
        -0.11746700825842206,
        0,
        -0.055094115143757998,
        0.11465530596275929,
        0.99187772527524887,
        0,
        0.024245426058769226,
        0.14092016220092773,
        0.095672100782394409,
        1
      ],
      "name": "sunset:paint_5"
    },
    {
      "children": [
        28
      ],
      "matrix": [
        1,
        -1.1275702593849243e-17,
        6.9388939039072268e-18,
        0,
        1.1275702593849243e-17,
        1,
        1.3877787807814457e-17,
        0,
        -6.9388939039072268e-18,
        -1.3877787807814457e-17,
        1,
        0,
        0,
        0,
        0,
        1
      ],
      "name": "sunset:MeshFrames"
    },
    {
      "mesh": 7,
      "name": "sunset:MeshFrames_lambert1_0"
    },
    {
      "children": [
        30
      ],
      "matrix": [
        0.99999970197677612,
        0,
        0,
        0,
        0,
        1,
        0,
        0,
        0,
        0,
        0.99999970197677612,
        0,
        0,
        0,
        0,
        1
      ],
      "name": "sunset:paint_6"
    },
    {
      "children": [
        31
      ],
      "name": "sunset:MeshFrames"
    },
    {
      "mesh": 8,
      "name": "sunset:MeshFrames_lambert1_0"
    }
  ],
  "scene": 0,
  "scenes": [
    {
      "name": "OSG_Scene",
      "nodes": [
        0
      ]
    }
  ]
}

